<svg xmlns="http://www.w3.org/2000/svg" width="186.302" height="200" viewBox="0 0 186.302 200"><path d="M778.263-390.27a4.454,4.454,0,0,0-4.429,3.883c-.443,3.436-2.627,12.8-5.609,24.05s-6.78,24.657-10.536,37.285a4.454,4.454,0,0,0,.7,3.933,4.454,4.454,0,0,0,3.57,1.791h73.583a4.453,4.453,0,0,0,3.276-1.437,4.454,4.454,0,0,0,1.162-3.384A190.913,190.913,0,0,0,835.1-355.4c-2.316-8.937-5.123-16.09-9.747-20.714-4.265-4.265-10.685-6.952-18.668-9.195a170.692,170.692,0,0,0-27.979-4.935Q778.486-390.269,778.263-390.27Zm3.527,9.429a156.021,156.021,0,0,1,22.488,4.106c7.263,2.04,12.585,4.723,14.779,6.917,2.378,2.379,5.293,8.436,7.422,16.65a172.366,172.366,0,0,1,4.146,24.933H767.886c3.212-10.96,6.382-22.142,8.948-31.819C779.194-368.953,780.8-375.706,781.791-380.841Zm-66.168-9.425a4.455,4.455,0,0,0-.644.02A170.679,170.679,0,0,0,687-385.311c-7.982,2.242-14.4,4.93-18.668,9.195-4.623,4.623-7.431,11.777-9.747,20.714a190.867,190.867,0,0,0-4.878,31.253,4.454,4.454,0,0,0,1.162,3.384,4.454,4.454,0,0,0,3.276,1.438h73.583a4.453,4.453,0,0,0,3.569-1.791,4.454,4.454,0,0,0,.7-3.933c-3.756-12.628-7.552-26.036-10.535-37.285s-5.166-20.614-5.609-24.05A4.454,4.454,0,0,0,715.623-390.266Zm-3.728,9.425c1,5.134,2.6,11.888,4.956,20.787,2.565,9.677,5.735,20.86,8.947,31.819H663.062a172.341,172.341,0,0,1,4.146-24.933c2.129-8.215,5.044-14.272,7.423-16.65,2.194-2.194,7.515-4.876,14.778-6.917A155.991,155.991,0,0,1,711.9-380.841Zm34.948-9.194c-5.626,0-11.252,1.012-12.3,3.039-1.747,3.388,5.1,17.764,9.832,22.392l-7.272,44.879h19.476l-7.271-44.881c4.736-4.63,11.578-19,9.831-22.391-1.045-2.026-6.671-3.039-12.3-3.039Zm0-129.293a58.618,58.618,0,0,0-58.551,58.551,58.618,58.618,0,0,0,58.551,58.551,58.618,58.618,0,0,0,58.551-58.551A58.618,58.618,0,0,0,746.843-519.328Zm0,8.906a49.577,49.577,0,0,1,49.644,49.644,49.577,49.577,0,0,1-49.644,49.644A49.577,49.577,0,0,1,697.2-460.777,49.577,49.577,0,0,1,746.843-510.422Z" transform="translate(-653.692 519.328)"/></svg>